<svg width="32" height="30" viewBox="0 0 32 30" fill="none" xmlns="http://www.w3.org/2000/svg">
<path d="M26.944 7.89474H22.752L13.6 3.15789L3.2 8.54211V23.6842C2.35131 23.6842 1.53737 23.3515 0.937258 22.7593C0.337142 22.1671 0 21.3638 0 20.5263V8.16316C0 7.10526 0.448 6.41053 1.296 6.01579L13.6 0L25.68 6.01579C26.4 6.45789 26.848 7.10526 26.944 7.89474ZM8 9.47368H28.8C29.6487 9.47368 30.4626 9.80639 31.0627 10.3986C31.6629 10.9908 32 11.7941 32 12.6316V26.8421C32 27.6796 31.6629 28.4829 31.0627 29.0751C30.4626 29.6673 29.6487 30 28.8 30H8C7.15131 30 6.33737 29.6673 5.73726 29.0751C5.13714 28.4829 4.8 27.6796 4.8 26.8421V12.6316C4.8 11.7941 5.13714 10.9908 5.73726 10.3986C6.33737 9.80639 7.15131 9.47368 8 9.47368ZM28.8 15.2684V12.6316L18.4 17.8579L8 12.6316V15.2684L18.4 20.5263L28.8 15.2684Z" fill="black"/>
</svg>
